#tb 0: 1/10
#media_type 0: video
#codec_id 0: gif
#dimensions 0: 217x217
#sar 0: 0/1
0,          0,          0,        1,     1368, 0x6cf0befd
0,          1,          1,        1,      158, 0xcd173bb4, F=0x0
0,          2,          2,        1,      163, 0x4f7a451d, F=0x0
0,          3,          3,        1,      152, 0x17723839, F=0x0
0,          4,          4,        1,      160, 0x67854056, F=0x0
0,          5,          5,        1,      144, 0x0dc43ead, F=0x0
0,          6,          6,        1,      142, 0xb0d73867, F=0x0
0,          7,          7,        1,      137, 0xd8f333a1, F=0x0
0,          8,          8,        1,      131, 0x32f93270, F=0x0
0,          9,          9,        1,      131, 0xf27b2e93, F=0x0
0,         10,         10,        1,      158, 0x152842d2, F=0x0
0,         11,         11,        1,      142, 0x12733116, F=0x0
0,         12,         12,        1,      142, 0x28f03160, F=0x0
0,         13,         13,        1,      131, 0x038d2dda, F=0x0
0,         14,         14,        1,      135, 0xb96c33a3, F=0x0
0,         15,         15,        1,      127, 0x4cbf2d59, F=0x0
0,         16,         16,        1,      146, 0xff013760, F=0x0
0,         17,         17,        1,      148, 0xa14d3c03, F=0x0
0,         18,         18,        1,      130, 0x139430b3, F=0x0
0,         19,         19,        1,      131, 0x40e03264, F=0x0
0,         20,         20,        1,      148, 0xf9d23c5c, F=0x0
0,         21,         21,        1,      131, 0xfdc9328b, F=0x0
0,         22,         22,        1,      131, 0x986d326f, F=0x0
0,         23,         23,        1,      132, 0x3fdc3311, F=0x0
0,         24,         24,        1,      130, 0x84c2330a, F=0x0
0,         25,         25,        1,      130, 0x9c0033f1, F=0x0
0,         26,         26,        1,      131, 0x62eb32f5, F=0x0
0,         27,         27,        1,      126, 0x326e328e, F=0x0
0,         28,         28,        1,      167, 0x8c8f4674, F=0x0
0,         29,         29,        1,      148, 0x340d32d5, F=0x0
0,         30,         30,        1,      171, 0xac2549fa, F=0x0
0,         31,         31,        1,      150, 0xe77535b1, F=0x0
0,         32,         32,        1,      178, 0x2c0b4c3a, F=0x0
0,         33,         33,        1,      154, 0xe99137bb, F=0x0
0,         34,         34,        1,      140, 0x525535c1, F=0x0
0,         35,         35,        1,      121, 0xdfdc2d02, F=0x0
0,         36,         36,        1,      140, 0x4db8345b, F=0x0
0,         37,         37,        1,      128, 0x32e92f77, F=0x0
0,         38,         38,        1,      143, 0x06663646, F=0x0
0,         39,         39,        1,      131, 0xbcef3180, F=0x0
0,         40,         40,        1,      127, 0xa8b92f17, F=0x0
0,         41,         41,        1,      127, 0xc88e300a, F=0x0
0,         42,         42,        1,      128, 0x2b3932e6, F=0x0
0,         43,         43,        1,      122, 0x89332dc5, F=0x0
0,         44,         44,        1,      133, 0x2b1d37ee, F=0x0
0,         45,         45,        1,      125, 0x4c5e32ab, F=0x0
0,         46,         46,        1,      124, 0x83122eaa, F=0x0
0,         47,         47,        1,      132, 0xa3953564, F=0x0
0,         48,         48,        1,      125, 0xae672fd9, F=0x0
0,         49,         49,        1,      143, 0xd5d8390e, F=0x0
0,         50,         50,        1,      139, 0xebab3726, F=0x0
0,         51,         51,        1,      130, 0x4c9b358b, F=0x0
0,         52,         52,        1,      130, 0x14993609, F=0x0
0,         53,         53,        1,      132, 0x2ced3637, F=0x0
0,         54,         54,        1,      134, 0xb27f3881, F=0x0
0,         55,         55,        1,      125, 0x0402336b, F=0x0
0,         56,         56,        1,      117, 0xf8a7310f, F=0x0
0,         57,         57,        1,      128, 0x07752f60, F=0x0
0,         58,         58,        1,      128, 0xf4d430da, F=0x0
0,         59,         59,        1,      130, 0xbf9733aa, F=0x0
0,         60,         60,        1,      124, 0x199f2f0e, F=0x0
0,         61,         61,        1,      127, 0x84ff32b6, F=0x0
0,         62,         62,        1,      124, 0x8d63305e, F=0x0
0,         63,         63,        1,      127, 0x7d6130f4, F=0x0
0,         64,         64,        1,      126, 0x78c83176, F=0x0
0,         65,         65,        1,      145, 0x3ec33e58, F=0x0
0,         66,         66,        1,      157, 0xb5764127, F=0x0
0,         67,         67,        1,      123, 0xd9bd309d, F=0x0
0,         68,         68,        1,      139, 0x93bc3ce8, F=0x0
0,         69,         69,        1,      123, 0x67813058, F=0x0
0,         70,         70,        1,      108, 0x176e2b80, F=0x0
0,         71,         71,        1,      117, 0x2ab12db9, F=0x0
0,         72,         72,        1,      128, 0xb52130fe, F=0x0
0,         73,         73,        1,      124, 0x62102d4e, F=0x0
0,         74,         74,        1,      114, 0x186f2dc7, F=0x0
0,         75,         75,        1,      104, 0x74ec2761, F=0x0
0,         76,         76,        1,      107, 0x9ba32643, F=0x0
0,         77,         77,        1,      127, 0xa8ef3544, F=0x0
0,         78,         78,        1,      127, 0xcd7e3051, F=0x0
0,         79,         79,        1,      221, 0x9d035e74, F=0x0
0,         80,         80,        1,      217, 0x99d45fbc, F=0x0
0,         81,         81,        1,      128, 0xc9522cfc, F=0x0
0,         82,         82,        1,      127, 0x934f3004, F=0x0
0,         83,         83,        1,      132, 0xb899320f, F=0x0
0,         84,         84,        1,      133, 0xec2b3427, F=0x0
0,         85,         85,        1,      131, 0xbedb31b2, F=0x0
0,         86,         86,        1,      127, 0x11bc321c, F=0x0
0,         87,         87,        1,      127, 0x36cf2f3e, F=0x0
0,         88,         88,        1,      115, 0x22b32e12, F=0x0
0,         89,         89,        1,      127, 0x53f73452, F=0x0
0,         90,         90,        1,      123, 0xc54931ba, F=0x0
0,         91,         91,        1,      170, 0x3055476c, F=0x0
0,         92,         92,        1,      132, 0xc6e431a9, F=0x0
0,         93,         93,        1,      124, 0x00e02e2c, F=0x0
0,         94,         94,        1,       92, 0x838f2429, F=0x0
0,         95,         95,        1,      184, 0xcee75528, F=0x0
0,         96,         96,        1,      145, 0xcbb533f9, F=0x0
0,         97,         97,        1,      187, 0x025b53b3, F=0x0
0,         98,         98,        1,      158, 0x73dc3de6, F=0x0
0,         99,         99,        1,      148, 0x489e3a52, F=0x0
0,        100,        100,        1,      137, 0xf4c23446, F=0x0
0,        101,        101,        1,      154, 0xc7eb3a4c, F=0x0
0,        102,        102,        1,      141, 0x175d328b, F=0x0
0,        103,        103,        1,      198, 0x22615c9f, F=0x0
0,        104,        104,        1,      167, 0x9f3c40f0, F=0x0
0,        105,        105,        1,      196, 0x66495290, F=0x0
0,        106,        106,        1,      171, 0x10b14318, F=0x0
0,        107,        107,        1,      152, 0x0e8538ba, F=0x0
0,        108,        108,        1,      144, 0xa7e83928, F=0x0
0,        109,        109,        1,      158, 0x2b6f3bb5, F=0x0
0,        110,        110,        1,      142, 0x242d3ac1, F=0x0
0,        111,        111,        1,      206, 0xf7935cd2, F=0x0
0,        112,        112,        1,      177, 0xc96a46b4, F=0x0
0,        113,        113,        1,      218, 0x96145d0c, F=0x0
0,        114,        114,        1,      182, 0xdb8e4b9e, F=0x0
0,        115,        115,        1,      145, 0x58483725, F=0x0
0,        116,        116,        1,      130, 0xe26b33a3, F=0x0
0,        117,        117,        1,      160, 0x162d3c34, F=0x0
0,        118,        118,        1,      145, 0x77cd3b1f, F=0x0
0,        119,        119,        1,      164, 0xfd024449, F=0x0
0,        120,        120,        1,      148, 0x68293a64, F=0x0
0,        121,        121,        1,      187, 0x8643475d, F=0x0
0,        122,        122,        1,      124, 0xe904324b, F=0x0
0,        123,        123,        1,      126, 0xb3482fed, F=0x0
0,        124,        124,        1,      131, 0x60183155, F=0x0
0,        125,        125,        1,      133, 0xf592319f, F=0x0
0,        126,        126,        1,      202, 0xb53c5af2, F=0x0
0,        127,        127,        1,      130, 0xe2503351, F=0x0
0,        128,        128,        1,      132, 0x2c1a3433, F=0x0
0,        129,        129,        1,      141, 0x772f36f2, F=0x0
0,        130,        130,        1,      134, 0x5f2f3838, F=0x0
0,        131,        131,        1,      216, 0x659c5fca, F=0x0
0,        132,        132,        1,      139, 0x4876362d, F=0x0
0,        133,        133,        1,      122, 0x96d13129, F=0x0
0,        134,        134,        1,      137, 0x875238ec, F=0x0
0,        135,        135,        1,      128, 0x953e3481, F=0x0
0,        136,        136,        1,      172, 0x6390470d, F=0x0
0,        137,        137,        1,      253, 0xe4e37282, F=0x0
0,        138,        138,        1,      223, 0xca0060e6, F=0x0
0,        139,        139,        1,      233, 0x20d96471, F=0x0
0,        140,        140,        1,      131, 0x07302c8c, F=0x0
0,        141,        141,        1,      132, 0x808b30dd, F=0x0
0,        142,        142,        1,      133, 0xa91231c3, F=0x0
0,        143,        143,        1,      130, 0x9a3a33d8, F=0x0
0,        144,        144,        1,      232, 0x00826277, F=0x0
0,        145,        145,        1,      247, 0x2edf6c06, F=0x0
0,        146,        146,        1,      135, 0xd47b35de, F=0x0
0,        147,        147,        1,      134, 0xc9c0330d, F=0x0
0,        148,        148,        1,      132, 0x2d0e3263, F=0x0
0,        149,        149,        1,      134, 0x5bd737ba, F=0x0
0,        150,        150,        1,      131, 0x67223298, F=0x0
0,        151,        151,        1,      125, 0xf483315a, F=0x0
0,        152,        152,        1,      127, 0xb83e31a0, F=0x0
0,        153,        153,        1,      125, 0x2dc033ab, F=0x0
0,        154,        154,        1,      157, 0x438344e2, F=0x0
0,        155,        155,        1,      135, 0xd01739e4, F=0x0
0,        156,        156,        1,      121, 0x834a3276, F=0x0
0,        157,        157,        1,      136, 0x243b3b8a, F=0x0
0,        158,        158,        1,      119, 0x47893201, F=0x0
0,        159,        159,        1,      154, 0xc688461f, F=0x0
0,        160,        160,        1,      245, 0x68786756, F=0x0
0,        161,        161,        1,      241, 0xa531647c, F=0x0
0,        162,        162,        1,      168, 0x5d6a4447, F=0x0
0,        163,        163,        1,      133, 0x55de34ee, F=0x0
0,        164,        164,        1,      139, 0xde613ccd, F=0x0
0,        165,        165,        1,      239, 0xf26b6ede, F=0x0
0,        166,        166,        1,      161, 0x6fed41b5, F=0x0
0,        167,        167,        1,      134, 0x011c3786, F=0x0
0,        168,        168,        1,      121, 0xf0532db8, F=0x0
0,        169,        169,        1,      133, 0x58b63448, F=0x0
0,        170,        170,        1,      130, 0x78c52ed9, F=0x0
0,        171,        171,        1,      153, 0xd99a3fab, F=0x0
0,        172,        172,        1,      179, 0x8ec74c98, F=0x0
